<mxfile host="app.diagrams.net" agent="Mozilla/5.0 (Windows NT 10.0; Win64; x64) AppleWebKit/537.36 (KHTML, like Gecko) Chrome/135.0.0.0 Safari/537.36" version="26.2.9">
  <diagram name="Page-1" id="TarMbAlbSuwD8RMPFWJ5">
    <mxGraphModel dx="1044" dy="562" grid="1" gridSize="10" guides="1" tooltips="1" connect="1" arrows="1" fold="1" page="1" pageScale="1" pageWidth="850" pageHeight="1100" math="0" shadow="0">
      <root>
        <mxCell id="0" />
        <mxCell id="1" parent="0" />
        <mxCell id="Rs3--y09c0La7-f21rfp-3" value="&lt;div style=&quot;color: rgb(204, 204, 204); background-color: rgb(31, 31, 31); font-family: Consolas, &amp;quot;Courier New&amp;quot;, monospace; font-weight: normal; line-height: 19px; white-space: pre;&quot;&gt;&lt;div&gt;&lt;span style=&quot;color: #6a9955;&quot;&gt;// Print sum of n number.&lt;/span&gt;&lt;/div&gt;&lt;div&gt;&lt;span style=&quot;color: #6a9955;&quot;&gt;// Step 1: Start&lt;/span&gt;&lt;/div&gt;&lt;div&gt;&lt;span style=&quot;color: #6a9955;&quot;&gt;// Step 2: Initialize variables&lt;/span&gt;&lt;/div&gt;&lt;div&gt;&lt;span style=&quot;color: #6a9955;&quot;&gt;// Step 3: Check the condition (i&amp;lt;=n)&lt;/span&gt;&lt;/div&gt;&lt;div&gt;&lt;span style=&quot;color: #6a9955;&quot;&gt;// Step 4: If the condition is true, then go to step 5 otherwise go to step 8&lt;/span&gt;&lt;/div&gt;&lt;div&gt;&lt;span style=&quot;color: #6a9955;&quot;&gt;// Step 5: sum = sum + i;&lt;/span&gt;&lt;/div&gt;&lt;div&gt;&lt;span style=&quot;color: #6a9955;&quot;&gt;// Step 6: Increment i by 1&lt;/span&gt;&lt;/div&gt;&lt;div&gt;&lt;span style=&quot;color: #6a9955;&quot;&gt;// Step 7: Go to step 3&lt;/span&gt;&lt;/div&gt;&lt;div&gt;&lt;span style=&quot;color: #6a9955;&quot;&gt;// Step 8: Print value of sum&lt;/span&gt;&lt;/div&gt;&lt;div&gt;&lt;span style=&quot;color: #6a9955;&quot;&gt;// Step 9: End&lt;/span&gt;&lt;/div&gt;&lt;br&gt;&lt;/div&gt;" style="text;whiteSpace=wrap;html=1;fontSize=14;" vertex="1" parent="1">
          <mxGeometry x="50" y="30" width="710" height="230" as="geometry" />
        </mxCell>
        <mxCell id="Rs3--y09c0La7-f21rfp-7" value="" style="edgeStyle=orthogonalEdgeStyle;rounded=0;orthogonalLoop=1;jettySize=auto;html=1;fontSize=14;" edge="1" parent="1" source="Rs3--y09c0La7-f21rfp-4" target="Rs3--y09c0La7-f21rfp-6">
          <mxGeometry relative="1" as="geometry" />
        </mxCell>
        <mxCell id="Rs3--y09c0La7-f21rfp-4" value="Start" style="strokeWidth=2;html=1;shape=mxgraph.flowchart.start_1;whiteSpace=wrap;fontSize=14;" vertex="1" parent="1">
          <mxGeometry x="375" y="290" width="100" height="60" as="geometry" />
        </mxCell>
        <mxCell id="Rs3--y09c0La7-f21rfp-5" value="End" style="strokeWidth=2;html=1;shape=mxgraph.flowchart.start_1;whiteSpace=wrap;fontSize=14;" vertex="1" parent="1">
          <mxGeometry x="375" y="990" width="100" height="60" as="geometry" />
        </mxCell>
        <mxCell id="Rs3--y09c0La7-f21rfp-9" value="" style="edgeStyle=orthogonalEdgeStyle;rounded=0;orthogonalLoop=1;jettySize=auto;html=1;fontSize=14;" edge="1" parent="1" source="Rs3--y09c0La7-f21rfp-6" target="Rs3--y09c0La7-f21rfp-8">
          <mxGeometry relative="1" as="geometry" />
        </mxCell>
        <mxCell id="Rs3--y09c0La7-f21rfp-6" value="int n, sum = 0, i=1" style="whiteSpace=wrap;html=1;strokeWidth=2;fontSize=14;" vertex="1" parent="1">
          <mxGeometry x="310" y="390" width="230" height="60" as="geometry" />
        </mxCell>
        <mxCell id="Rs3--y09c0La7-f21rfp-11" value="" style="edgeStyle=orthogonalEdgeStyle;rounded=0;orthogonalLoop=1;jettySize=auto;html=1;fontSize=14;" edge="1" parent="1" source="Rs3--y09c0La7-f21rfp-8" target="Rs3--y09c0La7-f21rfp-10">
          <mxGeometry relative="1" as="geometry" />
        </mxCell>
        <mxCell id="Rs3--y09c0La7-f21rfp-8" value="Enter n" style="shape=parallelogram;perimeter=parallelogramPerimeter;whiteSpace=wrap;html=1;fixedSize=1;strokeWidth=2;fontSize=14;" vertex="1" parent="1">
          <mxGeometry x="365" y="490" width="120" height="60" as="geometry" />
        </mxCell>
        <mxCell id="Rs3--y09c0La7-f21rfp-13" value="" style="edgeStyle=orthogonalEdgeStyle;rounded=0;orthogonalLoop=1;jettySize=auto;html=1;fontSize=14;" edge="1" parent="1" source="Rs3--y09c0La7-f21rfp-10" target="Rs3--y09c0La7-f21rfp-12">
          <mxGeometry relative="1" as="geometry" />
        </mxCell>
        <mxCell id="Rs3--y09c0La7-f21rfp-22" value="True" style="edgeLabel;html=1;align=center;verticalAlign=middle;resizable=0;points=[];fontSize=14;" vertex="1" connectable="0" parent="Rs3--y09c0La7-f21rfp-13">
          <mxGeometry x="-0.0867" y="-1" relative="1" as="geometry">
            <mxPoint as="offset" />
          </mxGeometry>
        </mxCell>
        <mxCell id="Rs3--y09c0La7-f21rfp-15" value="" style="edgeStyle=orthogonalEdgeStyle;rounded=0;orthogonalLoop=1;jettySize=auto;html=1;fontSize=14;" edge="1" parent="1" source="Rs3--y09c0La7-f21rfp-10" target="Rs3--y09c0La7-f21rfp-14">
          <mxGeometry relative="1" as="geometry" />
        </mxCell>
        <mxCell id="Rs3--y09c0La7-f21rfp-23" value="False" style="edgeLabel;html=1;align=center;verticalAlign=middle;resizable=0;points=[];fontSize=14;" vertex="1" connectable="0" parent="Rs3--y09c0La7-f21rfp-15">
          <mxGeometry x="-0.3744" y="-1" relative="1" as="geometry">
            <mxPoint as="offset" />
          </mxGeometry>
        </mxCell>
        <mxCell id="Rs3--y09c0La7-f21rfp-10" value="i&amp;lt;=n" style="rhombus;whiteSpace=wrap;html=1;strokeWidth=2;fontSize=14;" vertex="1" parent="1">
          <mxGeometry x="370" y="620" width="110" height="80" as="geometry" />
        </mxCell>
        <mxCell id="Rs3--y09c0La7-f21rfp-12" value="sum = sum +i&lt;div&gt;i++&lt;/div&gt;" style="whiteSpace=wrap;html=1;strokeWidth=2;fontSize=14;" vertex="1" parent="1">
          <mxGeometry x="365" y="760" width="120" height="60" as="geometry" />
        </mxCell>
        <mxCell id="Rs3--y09c0La7-f21rfp-18" value="" style="edgeStyle=orthogonalEdgeStyle;rounded=0;orthogonalLoop=1;jettySize=auto;html=1;fontSize=14;" edge="1" parent="1" source="Rs3--y09c0La7-f21rfp-14" target="Rs3--y09c0La7-f21rfp-17">
          <mxGeometry relative="1" as="geometry">
            <Array as="points">
              <mxPoint x="660" y="910" />
            </Array>
          </mxGeometry>
        </mxCell>
        <mxCell id="Rs3--y09c0La7-f21rfp-14" value="Print sum" style="shape=parallelogram;perimeter=parallelogramPerimeter;whiteSpace=wrap;html=1;fixedSize=1;strokeWidth=2;fontSize=14;" vertex="1" parent="1">
          <mxGeometry x="600" y="730" width="120" height="60" as="geometry" />
        </mxCell>
        <mxCell id="Rs3--y09c0La7-f21rfp-20" value="" style="edgeStyle=orthogonalEdgeStyle;rounded=0;orthogonalLoop=1;jettySize=auto;html=1;entryX=0;entryY=0.5;entryDx=0;entryDy=0;exitX=0;exitY=0.5;exitDx=0;exitDy=0;fontSize=14;" edge="1" parent="1" source="Rs3--y09c0La7-f21rfp-12" target="Rs3--y09c0La7-f21rfp-10">
          <mxGeometry relative="1" as="geometry">
            <mxPoint x="360" y="760" as="sourcePoint" />
            <mxPoint x="180" y="917" as="targetPoint" />
            <Array as="points">
              <mxPoint x="200" y="790" />
              <mxPoint x="200" y="660" />
            </Array>
          </mxGeometry>
        </mxCell>
        <mxCell id="Rs3--y09c0La7-f21rfp-21" value="" style="edgeStyle=orthogonalEdgeStyle;rounded=0;orthogonalLoop=1;jettySize=auto;html=1;fontSize=14;" edge="1" parent="1" source="Rs3--y09c0La7-f21rfp-17" target="Rs3--y09c0La7-f21rfp-5">
          <mxGeometry relative="1" as="geometry" />
        </mxCell>
        <mxCell id="Rs3--y09c0La7-f21rfp-17" value="" style="ellipse;whiteSpace=wrap;html=1;strokeWidth=2;fontSize=14;" vertex="1" parent="1">
          <mxGeometry x="385" y="870" width="80" height="80" as="geometry" />
        </mxCell>
      </root>
    </mxGraphModel>
  </diagram>
</mxfile>
